
    <svg id="diagramSvg" xmlns="http://www.w3.org/2000/svg" style="width: 2000px; height: 2500px;">
      <style id="stylesheet">text {
  text-anchor: middle;
  font-size: small;
  font-weight: bold;
}

rect {
  fill: lightblue;
  stroke: black;
  opacity: 0.5;
  stroke-width: 1.5;
}

line {
  stroke: black;
  opacity: 0.5;
  stroke-width: 1.5;
}
  </style>
      <defs>
        <marker id="arrowHead" viewBox="-10 -5 10 10" markerUnits="strokeWidth" markerWidth="6" markerHeight="5" orient="auto">
          <path d="M -10 -5 L 0 0 L -10 5 z"></path>
        </marker>
      </defs>
      <g id="diagramGroup"><rect y="0px" x="0px" height="15px" width="166px"></rect><text y="0px" x="0px"><tspan x="83" dy="13.239938080495357">covid vacuna</tspan></text><rect y="23px" x="0px" height="15px" width="166px"></rect><text y="23px" x="0px"><tspan x="83" dy="13.239938080495357">Covid México</tspan></text><rect y="46px" x="0px" height="15px" width="166px"></rect><text y="46px" x="0px"><tspan x="83" dy="13.239938080495357">AMLO covid</tspan></text><rect y="69px" x="0px" height="15px" width="166px"></rect><text y="69px" x="0px"><tspan x="83" dy="13.239938080495357">AstraZeneca vacuna Mexico</tspan></text><rect y="92px" x="0px" height="15px" width="166px"></rect><text y="92px" x="0px"><tspan x="83" dy="13.239938080495357">sputnik México</tspan></text><rect y="116px" x="0px" height="15px" width="166px"></rect><text y="116px" x="0px"><tspan x="83" dy="13.239938080495357">Ebrard vacuna</tspan></text><rect y="139px" x="0px" height="15px" width="166px"></rect><text y="139px" x="0px"><tspan x="83" dy="13.239938080495357">Coronavirus vacuna México</tspan></text><rect y="162px" x="0px" height="15px" width="166px"></rect><text y="162px" x="0px"><tspan x="83" dy="13.239938080495357">Coronavirus corrupción</tspan></text><rect y="185px" x="0px" height="15px" width="166px"></rect><text y="185px" x="0px"><tspan x="83" dy="13.239938080495357">Covid pruebas</tspan></text><rect y="208px" x="0px" height="15px" width="166px"></rect><text y="208px" x="0px"><tspan x="83" dy="13.239938080495357">covid semaforo</tspan></text><rect y="232px" x="0px" height="15px" width="166px"></rect><text y="232px" x="0px"><tspan x="83" dy="13.239938080495357">covid lopez gatell</tspan></text><rect y="255px" x="0px" height="15px" width="166px"></rect><text y="255px" x="0px"><tspan x="83" dy="13.239938080495357">covid mañanera</tspan></text><rect y="278px" x="0px" height="15px" width="166px"></rect><text y="278px" x="0px"><tspan x="83" dy="13.239938080495357">covid pfizer mexico</tspan></text><rect y="301px" x="0px" height="15px" width="166px"></rect><text y="301px" x="0px"><tspan x="83" dy="13.239938080495357">AMLO coronavirus</tspan></text><rect y="325px" x="0px" height="15px" width="166px"></rect><text y="325px" x="0px"><tspan x="83" dy="13.239938080495357">#sputnikv lilly tellez</tspan></text><rect y="348px" x="0px" height="15px" width="166px"></rect><text y="348px" x="0px"><tspan x="83" dy="13.239938080495357">sputnik LillyTellez</tspan></text><rect y="371px" x="0px" height="15px" width="166px"></rect><text y="371px" x="0px"><tspan x="83" dy="13.239938080495357">sputnik cofepris</tspan></text><rect y="394px" x="0px" height="15px" width="166px"></rect><text y="394px" x="0px"><tspan x="83" dy="13.239938080495357">sputnik amlo</tspan></text><rect y="417px" x="0px" height="15px" width="166px"></rect><text y="417px" x="0px"><tspan x="83" dy="13.239938080495357">vacuna rusa amlo</tspan></text><rect y="441px" x="0px" height="15px" width="166px"></rect><text y="441px" x="0px"><tspan x="83" dy="13.239938080495357">sputnik gatell</tspan></text><rect y="464px" x="0px" height="15px" width="166px"></rect><text y="464px" x="0px"><tspan x="83" dy="13.239938080495357">Sputnik ssa</tspan></text><rect y="487px" x="0px" height="15px" width="166px"></rect><text y="487px" x="0px"><tspan x="83" dy="13.239938080495357">Coronavac Sinovac China</tspan></text><rect y="510px" x="0px" height="15px" width="166px"></rect><text y="510px" x="0px"><tspan x="83" dy="13.239938080495357">Laboratorios Liomont</tspan></text><rect y="534px" x="0px" height="15px" width="166px"></rect><text y="534px" x="0px"><tspan x="83" dy="13.239938080495357">#SputnikV vaccination</tspan></text><rect y="557px" x="0px" height="15px" width="166px"></rect><text y="557px" x="0px"><tspan x="83" dy="13.239938080495357">Viri Ríos vacunas covid</tspan></text><rect y="580px" x="0px" height="15px" width="166px"></rect><text y="580px" x="0px"><tspan x="83" dy="13.239938080495357">Johnson &amp; Johnson vacuna</tspan></text><rect y="603px" x="0px" height="15px" width="166px"></rect><text y="603px" x="0px"><tspan x="83" dy="13.239938080495357">covid #FuerzaGatell</tspan></text><rect y="626px" x="0px" height="15px" width="166px"></rect><text y="626px" x="0px"><tspan x="83" dy="13.239938080495357">López Gatell Pronta</tspan></text><rect y="650px" x="0px" height="15px" width="166px"></rect><text y="650px" x="0px"><tspan x="83" dy="13.239938080495357">Almirante marina Rafael</tspan></text><rect y="673px" x="0px" height="15px" width="166px"></rect><text y="673px" x="0px"><tspan x="83" dy="13.239938080495357">covax México Ebrard</tspan></text><rect y="696px" x="0px" height="15px" width="166px"></rect><text y="696px" x="0px"><tspan x="83" dy="13.239938080495357">Ackerman Conacyt</tspan></text><rect y="719px" x="0px" height="15px" width="166px"></rect><text y="719px" x="0px"><tspan x="83" dy="13.239938080495357">Sinovac Marcelo Ebrard</tspan></text><rect y="743px" x="0px" height="15px" width="166px"></rect><text y="743px" x="0px"><tspan x="83" dy="13.239938080495357">ONU florero acaparamiento</tspan></text><rect y="766px" x="0px" height="15px" width="166px"></rect><text y="766px" x="0px"><tspan x="83" dy="13.239938080495357">Covax ONU vacuna México</tspan></text><rect y="789px" x="0px" height="15px" width="166px"></rect><text y="789px" x="0px"><tspan x="83" dy="13.239938080495357">Coronavac vacuna Mexico</tspan></text><rect y="812px" x="0px" height="15px" width="166px"></rect><text y="812px" x="0px"><tspan x="83" dy="13.239938080495357">#DrMuerte</tspan></text><rect y="835px" x="0px" height="15px" width="166px"></rect><text y="835px" x="0px"><tspan x="83" dy="13.239938080495357">#SputnikVaccinated Mexico</tspan></text><rect y="859px" x="0px" height="15px" width="166px"></rect><text y="859px" x="0px"><tspan x="83" dy="13.239938080495357">Cepillin covid</tspan></text><rect y="882px" x="0px" height="15px" width="166px"></rect><text y="882px" x="0px"><tspan x="83" dy="13.239938080495357">Casa Blanca covid Mexico</tspan></text><rect y="905px" x="0px" height="15px" width="166px"></rect><text y="905px" x="0px"><tspan x="83" dy="13.239938080495357">Jorge Alcocer vacuna Pfizer</tspan></text><rect y="928px" x="0px" height="15px" width="166px"></rect><text y="928px" x="0px"><tspan x="83" dy="13.239938080495357">Jorge Alcocer Gatell covid</tspan></text><rect y="952px" x="0px" height="15px" width="166px"></rect><text y="952px" x="0px"><tspan x="83" dy="13.239938080495357">Sinovac covid certificado</tspan></text><rect y="975px" x="0px" height="15px" width="166px"></rect><text y="975px" x="0px"><tspan x="83" dy="13.239938080495357">Cepillin coronavirus</tspan></text><rect y="998px" x="0px" height="15px" width="166px"></rect><text y="998px" x="0px"><tspan x="83" dy="13.239938080495357">Sinopharm Marcelo Ebrard</tspan></text><rect y="1021px" x="0px" height="15px" width="166px"></rect><text y="1021px" x="0px"><tspan x="83" dy="13.239938080495357">Nuevo León Sinovac</tspan></text><rect y="1044px" x="0px" height="15px" width="166px"></rect><text y="1044px" x="0px"><tspan x="83" dy="13.239938080495357">Jorge Alcocer covid</tspan></text><rect y="1068px" x="0px" height="15px" width="166px"></rect><text y="1068px" x="0px"><tspan x="83" dy="13.239938080495357">Fase 3 vacuna Gatell</tspan></text><rect y="1091px" x="0px" height="15px" width="166px"></rect><text y="1091px" x="0px"><tspan x="83" dy="13.239938080495357">CanSino vacuna Mexico</tspan></text><rect y="1114px" x="0px" height="15px" width="166px"></rect><text y="1114px" x="0px"><tspan x="83" dy="13.239938080495357">Sergio Mayer Gatell</tspan></text><rect y="1137px" x="0px" height="15px" width="166px"></rect><text y="1137px" x="0px"><tspan x="83" dy="13.239938080495357">Remdesivir COFEPRIS</tspan></text><rect y="1160px" x="0px" height="15px" width="166px"></rect><text y="1160px" x="0px"><tspan x="83" dy="13.239938080495357">Sinovac vacuna Mexico</tspan></text><rect y="1184px" x="0px" height="15px" width="166px"></rect><text y="1184px" x="0px"><tspan x="83" dy="13.239938080495357">Cancún covid Buenos Aires</tspan></text><rect y="1207px" x="0px" height="15px" width="166px"></rect><text y="1207px" x="0px"><tspan x="83" dy="13.239938080495357">Pfizer vacuna Mexico</tspan></text><rect y="1230px" x="0px" height="15px" width="166px"></rect><text y="1230px" x="0px"><tspan x="83" dy="13.239938080495357">Sputnik vacuna Mexico</tspan></text><rect y="1253px" x="0px" height="15px" width="166px"></rect><text y="1253px" x="0px"><tspan x="83" dy="13.239938080495357">#VacunasEnChimalhuacán</tspan></text><rect y="1277px" x="0px" height="15px" width="166px"></rect><text y="1277px" x="0px"><tspan x="83" dy="13.239938080495357">AstraZeneca fase 3 México</tspan></text><rect y="1300px" x="0px" height="15px" width="166px"></rect><text y="1300px" x="0px"><tspan x="83" dy="13.239938080495357">CanSino Drugmex</tspan></text><rect y="1323px" x="0px" height="15px" width="166px"></rect><text y="1323px" x="0px"><tspan x="83" dy="13.239938080495357">Laurie Ann Gatell</tspan></text><rect y="1346px" x="0px" height="15px" width="166px"></rect><text y="1346px" x="0px"><tspan x="83" dy="13.239938080495357">#Covid_19mx</tspan></text><rect y="1369px" x="0px" height="15px" width="166px"></rect><text y="1369px" x="0px"><tspan x="83" dy="13.239938080495357">#sinvacunasnohayregreso</tspan></text><rect y="1393px" x="0px" height="15px" width="166px"></rect><text y="1393px" x="0px"><tspan x="83" dy="13.239938080495357">#VacunacionEdomex</tspan></text><rect y="1416px" x="0px" height="15px" width="166px"></rect><text y="1416px" x="0px"><tspan x="83" dy="13.239938080495357">#VacunaEdomex</tspan></text><rect y="1439px" x="0px" height="15px" width="166px"></rect><text y="1439px" x="0px"><tspan x="83" dy="13.239938080495357">#EstrategiaDeVacunación</tspan></text><rect y="1462px" x="0px" height="15px" width="166px"></rect><text y="1462px" x="0px"><tspan x="83" dy="13.239938080495357">#VacunaciónEnIxtapaluca</tspan></text><rect y="1486px" x="0px" height="15px" width="166px"></rect><text y="1486px" x="0px"><tspan x="83" dy="13.239938080495357">#SputnikV Argentina México</tspan></text><rect y="1509px" x="0px" height="15px" width="166px"></rect><text y="1509px" x="0px"><tspan x="83" dy="13.239938080495357">#SputnikV Alberto</tspan></text><rect y="1532px" x="0px" height="15px" width="166px"></rect><text y="1532px" x="0px"><tspan x="83" dy="13.239938080495357">#PueblaSinSegundaDosis</tspan></text><rect y="1555px" x="0px" height="15px" width="166px"></rect><text y="1555px" x="0px"><tspan x="83" dy="13.239938080495357">#VacunenAMédicosYa</tspan></text><rect y="1578px" x="0px" height="15px" width="166px"></rect><text y="1578px" x="0px"><tspan x="83" dy="13.239938080495357">Covaxin Cofepris</tspan></text><rect y="1602px" x="0px" height="15px" width="166px"></rect><text y="1602px" x="0px"><tspan x="83" dy="13.239938080495357">Covaxin Ebrard</tspan></text><rect y="1625px" x="0px" height="15px" width="166px"></rect><text y="1625px" x="0px"><tspan x="83" dy="13.239938080495357">AstraZeneca vacuna AMLO</tspan></text><rect y="1648px" x="0px" height="15px" width="166px"></rect><text y="1648px" x="0px"><tspan x="83" dy="13.239938080495357">Covaxin vacuna México</tspan></text><rect y="1671px" x="0px" height="15px" width="166px"></rect><text y="1671px" x="0px"><tspan x="83" dy="13.239938080495357">Llegaron a México vacunas</tspan></text><rect y="1695px" x="0px" height="15px" width="166px"></rect><text y="1695px" x="0px"><tspan x="83" dy="13.239938080495357">vacuna eficacia México</tspan></text><rect y="1718px" x="0px" height="15px" width="166px"></rect><text y="1718px" x="0px"><tspan x="83" dy="13.239938080495357">Krauze #SputnikV</tspan></text><rect y="1741px" x="0px" height="15px" width="166px"></rect><text y="1741px" x="0px"><tspan x="83" dy="13.239938080495357">Krauze Sputnik</tspan></text><rect y="1764px" x="0px" height="15px" width="166px"></rect><text y="1764px" x="0px"><tspan x="83" dy="13.239938080495357">The Guardian AMLO</tspan></text><rect y="1787px" x="0px" height="15px" width="166px"></rect><text y="1787px" x="0px"><tspan x="83" dy="13.239938080495357">Zacatenco vacuna error</tspan></text><rect y="1811px" x="0px" height="15px" width="166px"></rect><text y="1811px" x="0px"><tspan x="83" dy="13.239938080495357">#vacuNADA</tspan></text><rect y="1834px" x="0px" height="15px" width="166px"></rect><text y="1834px" x="0px"><tspan x="83" dy="13.239938080495357">#VacunasDeAire</tspan></text><rect y="1857px" x="0px" height="15px" width="166px"></rect><text y="1857px" x="0px"><tspan x="83" dy="13.239938080495357">difamación Sheinbaum</tspan></text><rect y="1880px" x="0px" height="15px" width="166px"></rect><text y="1880px" x="0px"><tspan x="83" dy="13.239938080495357">vacuna estrategia electoral</tspan></text><rect y="1904px" x="0px" height="15px" width="166px"></rect><text y="1904px" x="0px"><tspan x="83" dy="13.239938080495357">Alcocer AMLO inmune</tspan></text><rect y="1927px" x="0px" height="15px" width="166px"></rect><text y="1927px" x="0px"><tspan x="83" dy="13.239938080495357">#EstudiantesDebenSerVacun</tspan></text><rect y="1950px" x="0px" height="15px" width="166px"></rect><text y="1950px" x="0px"><tspan x="83" dy="13.239938080495357">vacunación médicos privados</tspan></text><rect y="1973px" x="0px" height="15px" width="166px"></rect><text y="1973px" x="0px"><tspan x="83" dy="13.239938080495357">vileza Calderón médicos</tspan></text><rect y="1996px" x="0px" height="15px" width="166px"></rect><text y="1996px" x="0px"><tspan x="83" dy="13.239938080495357">#PrevenirEsSalud</tspan></text><rect y="2020px" x="0px" height="15px" width="166px"></rect><text y="2020px" x="0px"><tspan x="83" dy="13.239938080495357">Patria vacuna Mexico</tspan></text><rect y="2043px" x="0px" height="15px" width="166px"></rect><text y="2043px" x="0px"><tspan x="83" dy="13.239938080495357">Patria vacuna CONACYT</tspan></text><rect y="2066px" x="0px" height="15px" width="166px"></rect><text y="2066px" x="0px"><tspan x="83" dy="13.239938080495357">vacunación maestros Gatell</tspan></text><rect y="2089px" x="0px" height="15px" width="166px"></rect><text y="2089px" x="0px"><tspan x="83" dy="13.239938080495357">vacunación maestros México</tspan></text><rect y="2113px" x="0px" height="15px" width="166px"></rect><text y="2113px" x="0px"><tspan x="83" dy="13.239938080495357">UNESCO CDMX covid</tspan></text><rect y="2136px" x="0px" height="15px" width="166px"></rect><text y="2136px" x="0px"><tspan x="83" dy="13.239938080495357">vacunación docentes Gatell</tspan></text><rect y="2159px" x="0px" height="15px" width="166px"></rect><text y="2159px" x="0px"><tspan x="83" dy="13.239938080495357">vacunación personal</tspan></text><rect y="2182px" x="0px" height="15px" width="166px"></rect><text y="2182px" x="0px"><tspan x="83" dy="13.239938080495357">vacunación docentes México</tspan></text><rect y="2205px" x="0px" height="15px" width="166px"></rect><text y="2205px" x="0px"><tspan x="83" dy="13.239938080495357">vacunación personal</tspan></text><rect y="2229px" x="0px" height="15px" width="166px"></rect><text y="2229px" x="0px"><tspan x="83" dy="13.239938080495357">CanSino personal educativo</tspan></text><rect y="2252px" x="0px" height="15px" width="166px"></rect><text y="2252px" x="0px"><tspan x="83" dy="13.239938080495357">CanSino maestros</tspan></text><rect y="2275px" x="0px" height="15px" width="166px"></rect><text y="2275px" x="0px"><tspan x="83" dy="13.239938080495357">#RegresoAClases covid</tspan></text><rect y="2298px" x="0px" height="15px" width="166px"></rect><text y="2298px" x="0px"><tspan x="83" dy="13.239938080495357">Dresser estrategia de</tspan></text><rect y="2321px" x="0px" height="15px" width="166px"></rect><text y="2321px" x="0px"><tspan x="83" dy="13.239938080495357">Quadri estrategia de</tspan></text><rect y="2345px" x="0px" height="15px" width="166px"></rect><text y="2345px" x="0px"><tspan x="83" dy="13.239938080495357">#VacunaciónChimalhuacán</tspan></text><rect y="2368px" x="0px" height="15px" width="166px"></rect><text y="2368px" x="0px"><tspan x="83" dy="13.239938080495357">#CuidemosTodosDeTodos</tspan></text><rect y="2391px" x="0px" height="15px" width="166px"></rect><text y="2391px" x="0px"><tspan x="83" dy="13.239938080495357">vacuna 50 a 59</tspan></text><rect y="2414px" x="0px" height="15px" width="166px"></rect><text y="2414px" x="0px"><tspan x="83" dy="13.239938080495357">#AgilicenVacunasParaTodos</tspan></text><rect y="2438px" x="0px" height="15px" width="166px"></rect><text y="2438px" x="0px"><tspan x="83" dy="13.239938080495357">#Vacunación50a59Edomex</tspan></text><rect y="2461px" x="0px" height="15px" width="166px"></rect><text y="2461px" x="0px"><tspan x="83" dy="13.239938080495357">#vacunacion50a59</tspan></text><rect y="2484px" x="0px" height="15px" width="166px"></rect><text y="2484px" x="0px"><tspan x="83" dy="13.239938080495357">vacunación 50 a 59</tspan></text><rect y="0px" x="366px" height="15px" width="166px"></rect><text y="0px" x="366px"><tspan x="450" dy="13.239938080495357">vacuna (covid OR SARS-</tspan></text><line y1="0px" x1="166px" y2="7px" x2="366px" marker-end="url(#arrowHead)"></line><rect y="17px" x="366px" height="15px" width="166px"></rect><text y="17px" x="366px"><tspan x="450" dy="13.239938080495357">Vacuna covid México</tspan></text><line y1="1px" x1="166px" y2="24px" x2="366px" marker-end="url(#arrowHead)"></line><rect y="34px" x="366px" height="15px" width="166px"></rect><text y="34px" x="366px"><tspan x="450" dy="13.239938080495357">Ecatepec vacuna covid</tspan></text><line y1="2px" x1="166px" y2="41px" x2="366px" marker-end="url(#arrowHead)"></line><rect y="51px" x="366px" height="15px" width="166px"></rect><text y="51px" x="366px"><tspan x="450" dy="13.239938080495357">Xochimilco vacuna covid</tspan></text><line y1="2px" x1="166px" y2="58px" x2="366px" marker-end="url(#arrowHead)"></line><rect y="68px" x="366px" height="15px" width="166px"></rect><text y="68px" x="366px"><tspan x="450" dy="13.239938080495357">Tláhuac vacuna covid</tspan></text><line y1="3px" x1="166px" y2="75px" x2="366px" marker-end="url(#arrowHead)"></line><rect y="85px" x="366px" height="15px" width="166px"></rect><text y="85px" x="366px"><tspan x="450" dy="13.239938080495357">Iztacalco vacuna covid</tspan></text><line y1="4px" x1="166px" y2="92px" x2="366px" marker-end="url(#arrowHead)"></line><rect y="102px" x="366px" height="15px" width="166px"></rect><text y="102px" x="366px"><tspan x="450" dy="13.239938080495357">AMLO vacuna covid</tspan></text><line y1="4px" x1="166px" y2="109px" x2="366px" marker-end="url(#arrowHead)"></line><rect y="119px" x="366px" height="15px" width="166px"></rect><text y="119px" x="366px"><tspan x="450" dy="13.239938080495357">Dolia Estévez SCJN vacuna</tspan></text><line y1="5px" x1="166px" y2="126px" x2="366px" marker-end="url(#arrowHead)"></line><rect y="136px" x="366px" height="15px" width="166px"></rect><text y="136px" x="366px"><tspan x="450" dy="13.239938080495357">Azcapotzalco vacuna covid</tspan></text><line y1="6px" x1="166px" y2="143px" x2="366px" marker-end="url(#arrowHead)"></line><rect y="153px" x="366px" height="15px" width="166px"></rect><text y="153px" x="366px"><tspan x="450" dy="13.239938080495357">Miguel Hidalgo vacuna covid</tspan></text><line y1="7px" x1="166px" y2="160px" x2="366px" marker-end="url(#arrowHead)"></line><rect y="170px" x="366px" height="15px" width="166px"></rect><text y="170px" x="366px"><tspan x="450" dy="13.239938080495357">Toluca vacuna covid</tspan></text><line y1="7px" x1="166px" y2="178px" x2="366px" marker-end="url(#arrowHead)"></line><rect y="187px" x="366px" height="15px" width="166px"></rect><text y="187px" x="366px"><tspan x="450" dy="13.239938080495357">Nuevo León vacuna covid</tspan></text><line y1="8px" x1="166px" y2="195px" x2="366px" marker-end="url(#arrowHead)"></line><rect y="204px" x="366px" height="15px" width="166px"></rect><text y="204px" x="366px"><tspan x="450" dy="13.239938080495357">San Pedro Cholula vacuna</tspan></text><line y1="9px" x1="166px" y2="212px" x2="366px" marker-end="url(#arrowHead)"></line><rect y="221px" x="366px" height="15px" width="166px"></rect><text y="221px" x="366px"><tspan x="450" dy="13.239938080495357">Venustiano Carranza vacuna</tspan></text><line y1="9px" x1="166px" y2="229px" x2="366px" marker-end="url(#arrowHead)"></line><rect y="238px" x="366px" height="15px" width="166px"></rect><text y="238px" x="366px"><tspan x="450" dy="13.239938080495357">Coyoacán vacuna covid</tspan></text><line y1="10px" x1="166px" y2="246px" x2="366px" marker-end="url(#arrowHead)"></line><rect y="255px" x="366px" height="15px" width="166px"></rect><text y="255px" x="366px"><tspan x="450" dy="13.239938080495357">Tlalpan vacuna covid</tspan></text><line y1="11px" x1="166px" y2="263px" x2="366px" marker-end="url(#arrowHead)"></line><rect y="272px" x="366px" height="15px" width="166px"></rect><text y="272px" x="366px"><tspan x="450" dy="13.239938080495357">Iztapalapa vacuna covid</tspan></text><line y1="11px" x1="166px" y2="280px" x2="366px" marker-end="url(#arrowHead)"></line><rect y="289px" x="366px" height="15px" width="166px"></rect><text y="289px" x="366px"><tspan x="450" dy="13.239938080495357">Gustavo A.Madero vacuna</tspan></text><line y1="12px" x1="166px" y2="297px" x2="366px" marker-end="url(#arrowHead)"></line><rect y="306px" x="366px" height="15px" width="166px"></rect><text y="306px" x="366px"><tspan x="450" dy="13.239938080495357">Milpa Alta vacuna covid</tspan></text><line y1="13px" x1="166px" y2="314px" x2="366px" marker-end="url(#arrowHead)"></line><rect y="323px" x="366px" height="15px" width="166px"></rect><text y="323px" x="366px"><tspan x="450" dy="13.239938080495357">Cuajimalpa vacuna covid</tspan></text><line y1="14px" x1="166px" y2="331px" x2="366px" marker-end="url(#arrowHead)"></line><rect y="340px" x="366px" height="15px" width="166px"></rect><text y="340px" x="366px"><tspan x="450" dy="13.239938080495357">Magdalena Contreras vacuna</tspan></text><line y1="14px" x1="166px" y2="348px" x2="366px" marker-end="url(#arrowHead)"></line><rect y="363px" x="366px" height="15px" width="166px"></rect><text y="363px" x="366px"><tspan x="450" dy="13.239938080495357">vacuna (covid OR SARS-</tspan></text><line y1="24px" x1="166px" y2="371px" x2="366px" marker-end="url(#arrowHead)"></line><rect y="380px" x="366px" height="15px" width="166px"></rect><text y="380px" x="366px"><tspan x="450" dy="13.239938080495357">Vacuna covid México</tspan></text><line y1="25px" x1="166px" y2="388px" x2="366px" marker-end="url(#arrowHead)"></line><rect y="397px" x="366px" height="15px" width="166px"></rect><text y="397px" x="366px"><tspan x="450" dy="13.239938080495357">covid cura México</tspan></text><line y1="27px" x1="166px" y2="405px" x2="366px" marker-end="url(#arrowHead)"></line><rect y="414px" x="366px" height="15px" width="166px"></rect><text y="414px" x="366px"><tspan x="450" dy="13.239938080495357">covid 5G México</tspan></text><line y1="28px" x1="166px" y2="422px" x2="366px" marker-end="url(#arrowHead)"></line><rect y="431px" x="366px" height="15px" width="166px"></rect><text y="431px" x="366px"><tspan x="450" dy="13.239938080495357">pruebas covid México</tspan></text><line y1="29px" x1="166px" y2="439px" x2="366px" marker-end="url(#arrowHead)"></line><rect y="448px" x="366px" height="15px" width="166px"></rect><text y="448px" x="366px"><tspan x="450" dy="13.239938080495357">Covid muertes México</tspan></text><line y1="30px" x1="166px" y2="456px" x2="366px" marker-end="url(#arrowHead)"></line><rect y="465px" x="366px" height="15px" width="166px"></rect><text y="465px" x="366px"><tspan x="450" dy="13.239938080495357">covid viajeros México</tspan></text><line y1="32px" x1="166px" y2="473px" x2="366px" marker-end="url(#arrowHead)"></line><rect y="482px" x="366px" height="15px" width="166px"></rect><text y="482px" x="366px"><tspan x="450" dy="13.239938080495357">covid fake news México</tspan></text><line y1="33px" x1="166px" y2="490px" x2="366px" marker-end="url(#arrowHead)"></line><rect y="500px" x="366px" height="15px" width="166px"></rect><text y="500px" x="366px"><tspan x="450" dy="13.239938080495357">vacunación covid personal</tspan></text><line y1="34px" x1="166px" y2="507px" x2="366px" marker-end="url(#arrowHead)"></line><rect y="517px" x="366px" height="15px" width="166px"></rect><text y="517px" x="366px"><tspan x="450" dy="13.239938080495357">Universidad de California</tspan></text><line y1="36px" x1="166px" y2="524px" x2="366px" marker-end="url(#arrowHead)"></line><rect y="534px" x="366px" height="15px" width="166px"></rect><text y="534px" x="366px"><tspan x="450" dy="13.239938080495357">adultos vacunación covid</tspan></text><line y1="37px" x1="166px" y2="541px" x2="366px" marker-end="url(#arrowHead)"></line><rect y="557px" x="366px" height="15px" width="166px"></rect><text y="557px" x="366px"><tspan x="450" dy="13.239938080495357">ONU AMLO vacunas covid</tspan></text><line y1="49px" x1="166px" y2="565px" x2="366px" marker-end="url(#arrowHead)"></line><rect y="574px" x="366px" height="15px" width="166px"></rect><text y="574px" x="366px"><tspan x="450" dy="13.239938080495357">AMLO vacuna covid</tspan></text><line y1="52px" x1="166px" y2="582px" x2="366px" marker-end="url(#arrowHead)"></line><rect y="591px" x="366px" height="15px" width="166px"></rect><text y="591px" x="366px"><tspan x="450" dy="13.239938080495357">The Guardian AMLO covid</tspan></text><line y1="55px" x1="166px" y2="599px" x2="366px" marker-end="url(#arrowHead)"></line><rect y="608px" x="366px" height="15px" width="166px"></rect><text y="608px" x="366px"><tspan x="450" dy="13.239938080495357">Universidad de California</tspan></text><line y1="58px" x1="166px" y2="616px" x2="366px" marker-end="url(#arrowHead)"></line><rect y="631px" x="366px" height="15px" width="166px"></rect><text y="631px" x="366px"><tspan x="450" dy="13.239938080495357">AstraZeneca vacuna Mexico</tspan></text><line y1="72px" x1="166px" y2="639px" x2="366px" marker-end="url(#arrowHead)"></line><rect y="648px" x="366px" height="15px" width="166px"></rect><text y="648px" x="366px"><tspan x="450" dy="13.239938080495357">AstraZeneca vacuna Mexico</tspan></text><line y1="75px" x1="166px" y2="656px" x2="366px" marker-end="url(#arrowHead)"></line><rect y="665px" x="366px" height="15px" width="166px"></rect><text y="665px" x="366px"><tspan x="450" dy="13.239938080495357">AstraZeneca vacuna Mexico</tspan></text><line y1="78px" x1="166px" y2="673px" x2="366px" marker-end="url(#arrowHead)"></line><rect y="682px" x="366px" height="15px" width="166px"></rect><text y="682px" x="366px"><tspan x="450" dy="13.239938080495357">AstraZeneca vacuna Mexico</tspan></text><line y1="82px" x1="166px" y2="690px" x2="366px" marker-end="url(#arrowHead)"></line><rect y="705px" x="366px" height="15px" width="166px"></rect><text y="705px" x="366px"><tspan x="450" dy="13.239938080495357">Sputnik V Argentina México</tspan></text><line y1="98px" x1="166px" y2="713px" x2="366px" marker-end="url(#arrowHead)"></line><rect y="722px" x="366px" height="15px" width="166px"></rect><text y="722px" x="366px"><tspan x="450" dy="13.239938080495357">Sputnik V Alberto</tspan></text><line y1="103px" x1="166px" y2="730px" x2="366px" marker-end="url(#arrowHead)"></line><rect y="746px" x="366px" height="15px" width="166px"></rect><text y="746px" x="366px"><tspan x="450" dy="13.239938080495357">Fase 3 vacuna Ebrard</tspan></text><line y1="121px" x1="166px" y2="753px" x2="366px" marker-end="url(#arrowHead)"></line><rect y="763px" x="366px" height="15px" width="166px"></rect><text y="763px" x="366px"><tspan x="450" dy="13.239938080495357">Ebrard vacuna México</tspan></text><line y1="126px" x1="166px" y2="770px" x2="366px" marker-end="url(#arrowHead)"></line><rect y="786px" x="366px" height="15px" width="166px"></rect><text y="786px" x="366px"><tspan x="450" dy="13.239938080495357">vacuna (covid OR SARS-</tspan></text><line y1="147px" x1="166px" y2="794px" x2="366px" marker-end="url(#arrowHead)"></line><rect y="809px" x="366px" height="15px" width="166px"></rect><text y="809px" x="366px"><tspan x="450" dy="13.239938080495357">pruebas covid México</tspan></text><line y1="193px" x1="166px" y2="817px" x2="366px" marker-end="url(#arrowHead)"></line><rect y="832px" x="366px" height="15px" width="166px"></rect><text y="832px" x="366px"><tspan x="450" dy="13.239938080495357">Alcocer mañanera covid</tspan></text><line y1="263px" x1="166px" y2="840px" x2="366px" marker-end="url(#arrowHead)"></line><rect y="856px" x="366px" height="15px" width="166px"></rect><text y="856px" x="366px"><tspan x="450" dy="13.239938080495357">cofepris sputnik v</tspan></text><line y1="379px" x1="166px" y2="863px" x2="366px" marker-end="url(#arrowHead)"></line><rect y="1230px" x="366px" height="15px" width="166px"></rect><text y="1230px" x="366px"><tspan x="450" dy="13.239938080495357">Sputnik vacuna falsa Mexico</tspan></text><line y1="1238px" x1="166px" y2="1238px" x2="366px" marker-end="url(#arrowHead)"></line><rect y="92px" x="733px" height="15px" width="166px"></rect><text y="92px" x="733px"><tspan x="816" dy="13.239938080495357">covid vacuna rusa amlo</tspan></text><line y1="107px" x1="533px" y2="99px" x2="733px" marker-end="url(#arrowHead)"></line><rect y="112px" x="733px" height="15px" width="166px"></rect><text y="112px" x="733px"><tspan x="816" dy="13.239938080495357">Vacuna covid AMLO Biden</tspan></text><line y1="112px" x1="533px" y2="119px" x2="733px" marker-end="url(#arrowHead)"></line><rect y="564px" x="733px" height="15px" width="166px"></rect><text y="564px" x="733px"><tspan x="816" dy="13.239938080495357">covid vacuna rusa amlo</tspan></text><line y1="579px" x1="533px" y2="571px" x2="733px" marker-end="url(#arrowHead)"></line><rect y="584px" x="733px" height="15px" width="166px"></rect><text y="584px" x="733px"><tspan x="816" dy="13.239938080495357">Vacuna covid AMLO Biden</tspan></text><line y1="584px" x1="533px" y2="592px" x2="733px" marker-end="url(#arrowHead)"></line></g>
    </svg>
  